<?xml version="1.0" encoding="UTF-8" standalone="no"?>
<!DOCTYPE svg PUBLIC "-//W3C//DTD SVG 1.1//EN" "http://www.w3.org/Graphics/SVG/1.1/DTD/svg11.dtd">
<svg width="100%" height="100%" viewBox="0 0 170 170" version="1.1" xmlns="http://www.w3.org/2000/svg" xmlns:xlink="http://www.w3.org/1999/xlink" xml:space="preserve" xmlns:serif="http://www.serif.com/" style="fill-rule:evenodd;clip-rule:evenodd;stroke-linejoin:round;stroke-miterlimit:2;">
    <g transform="matrix(1,0,0,1,-635.631,-1.43854)">
        <g transform="matrix(0.0382184,0,0,0.0382184,184.117,-31.6516)">
            <circle cx="15135.5" cy="3089.34" r="1097.64"/>
        </g>
        <g transform="matrix(0.0382184,0,0,0.0382184,100.179,-31.6516)">
            <circle cx="15135.5" cy="3089.34" r="1097.64"/>
        </g>
        <g transform="matrix(0.0764594,0,0,0.0764595,-436.643,-149.788)">
            <path d="M15135.5,1977.86C14828.8,1977.86 14550.9,2102.37 14349.7,2303.56C14148.6,2504.75 14024.1,2782.62 14024.1,3089.34C14024.1,3396.06 14148.6,3673.93 14349.7,3875.12C14550.9,4076.31 14828.8,4200.81 15135.5,4200.81C15442.2,4200.81 15720.1,4076.31 15921.3,3875.12C16122.5,3673.93 16247,3396.06 16247,3089.34C16247,2782.62 16122.5,2504.75 15921.3,2303.56C15720.1,2102.37 15442.2,1977.86 15135.5,1977.86ZM15135.5,2005.54C15434.6,2005.54 15705.6,2126.95 15901.7,2323.13C16097.9,2519.3 16219.3,2790.25 16219.3,3089.34C16219.3,3388.42 16097.9,3659.37 15901.7,3855.55C15705.6,4051.73 15434.6,4173.14 15135.5,4173.14C14836.4,4173.14 14565.5,4051.73 14369.3,3855.55C14173.1,3659.37 14051.7,3388.42 14051.7,3089.34C14051.7,2790.25 14173.1,2519.3 14369.3,2323.13C14565.5,2126.95 14836.4,2005.54 15135.5,2005.54Z"/>
        </g>
    </g>
</svg>
