<?xml version="1.0" encoding="UTF-8" standalone="no"?>
<!DOCTYPE svg PUBLIC "-//W3C//DTD SVG 1.1//EN" "http://www.w3.org/Graphics/SVG/1.1/DTD/svg11.dtd">
<svg width="100%" height="100%" viewBox="0 0 169 169" version="1.1" xmlns="http://www.w3.org/2000/svg" xmlns:xlink="http://www.w3.org/1999/xlink" xml:space="preserve" xmlns:serif="http://www.serif.com/" style="fill-rule:evenodd;clip-rule:evenodd;stroke-linejoin:round;stroke-miterlimit:2;">
    <g transform="matrix(1,0,0,1,-0.541434,-2.07316)">
        <g transform="matrix(1,0,0,1,-7456.38,-4129.59)">
            <g transform="matrix(0.0764594,0,0,0.0764595,6384.01,3979.8)">
                <path d="M15135.5,1986.16C14831.1,1986.16 14555.3,2109.74 14355.6,2309.43C14155.9,2509.11 14032.4,2784.91 14032.4,3089.34C14032.4,3393.77 14155.9,3669.56 14355.6,3869.25C14555.3,4068.93 14831.1,4192.51 15135.5,4192.51C15440,4192.51 15715.8,4068.93 15915.4,3869.25C16115.1,3669.56 16238.7,3393.77 16238.7,3089.34C16238.7,2784.91 16115.1,2509.11 15915.4,2309.43C15715.8,2109.74 15440,1986.16 15135.5,1986.16ZM15135.5,1997.23C15436.9,1997.23 15709.9,2119.57 15907.6,2317.26C16105.3,2514.94 16227.6,2787.96 16227.6,3089.34C16227.6,3390.71 16105.3,3663.74 15907.6,3861.42C15709.9,4059.1 15436.9,4181.44 15135.5,4181.44C14834.2,4181.44 14561.1,4059.1 14363.4,3861.42C14165.8,3663.74 14043.4,3390.71 14043.4,3089.34C14043.4,2787.96 14165.8,2514.94 14363.4,2317.26C14561.1,2119.57 14834.2,1997.23 15135.5,1997.23Z"/>
            </g>
        </g>
    </g>
</svg>
