<?xml version="1.0" encoding="UTF-8" standalone="no"?>
<!DOCTYPE svg PUBLIC "-//W3C//DTD SVG 1.1//EN" "http://www.w3.org/Graphics/SVG/1.1/DTD/svg11.dtd">
<svg width="100%" height="100%" viewBox="0 0 170 170" version="1.1" xmlns="http://www.w3.org/2000/svg" xmlns:xlink="http://www.w3.org/1999/xlink" xml:space="preserve" xmlns:serif="http://www.serif.com/" style="fill-rule:evenodd;clip-rule:evenodd;stroke-linejoin:round;stroke-miterlimit:2;">
    <g transform="matrix(1,0,0,1,-941.301,-1.43854)">
        <g transform="matrix(0.0382184,0,0,0.0382184,489.816,-31.6516)">
            <path d="M15135.5,1964.02C14825,1964.02 14543.7,2090.07 14340,2293.77C14136.3,2497.46 14010.2,2778.8 14010.2,3089.34C14010.2,3399.88 14136.3,3681.21 14340,3884.91C14543.7,4088.6 14825,4214.66 15135.5,4214.66C15446.1,4214.66 15727.4,4088.6 15931.1,3884.91C16134.8,3681.21 16260.8,3399.88 16260.8,3089.34C16260.8,2778.8 16134.8,2497.46 15931.1,2293.77C15727.4,2090.07 15446.1,1964.02 15135.5,1964.02ZM15135.5,2019.38C15430.8,2019.38 15698.3,2139.24 15891.9,2332.92C16085.6,2526.59 16205.5,2794.08 16205.5,3089.34C16205.5,3384.6 16085.6,3652.09 15891.9,3845.76C15698.3,4039.43 15430.8,4159.29 15135.5,4159.29C14840.3,4159.29 14572.8,4039.43 14379.1,3845.76C14185.4,3652.09 14065.6,3384.6 14065.6,3089.34C14065.6,2794.08 14185.4,2526.59 14379.1,2332.92C14572.8,2139.24 14840.3,2019.38 15135.5,2019.38Z"/>
        </g>
        <g transform="matrix(0.0382184,0,0,0.0382184,447.822,-31.6516)">
            <path d="M15135.5,1964.02C14825,1964.02 14543.7,2090.07 14340,2293.77C14136.3,2497.46 14010.2,2778.8 14010.2,3089.34C14010.2,3399.88 14136.3,3681.21 14340,3884.91C14543.7,4088.6 14825,4214.66 15135.5,4214.66C15446.1,4214.66 15727.4,4088.6 15931.1,3884.91C16134.8,3681.21 16260.8,3399.88 16260.8,3089.34C16260.8,2778.8 16134.8,2497.46 15931.1,2293.77C15727.4,2090.07 15446.1,1964.02 15135.5,1964.02ZM15135.5,2019.38C15430.8,2019.38 15698.3,2139.24 15891.9,2332.92C16085.6,2526.59 16205.5,2794.08 16205.5,3089.34C16205.5,3384.6 16085.6,3652.09 15891.9,3845.76C15698.3,4039.43 15430.8,4159.29 15135.5,4159.29C14840.3,4159.29 14572.8,4039.43 14379.1,3845.76C14185.4,3652.09 14065.6,3384.6 14065.6,3089.34C14065.6,2794.08 14185.4,2526.59 14379.1,2332.92C14572.8,2139.24 14840.3,2019.38 15135.5,2019.38Z"/>
        </g>
        <g transform="matrix(0.0382184,0,0,0.0382184,405.854,-31.6516)">
            <path d="M15135.5,1964.02C14825,1964.02 14543.7,2090.07 14340,2293.77C14136.3,2497.46 14010.2,2778.8 14010.2,3089.34C14010.2,3399.88 14136.3,3681.21 14340,3884.91C14543.7,4088.6 14825,4214.66 15135.5,4214.66C15446.1,4214.66 15727.4,4088.6 15931.1,3884.91C16134.8,3681.21 16260.8,3399.88 16260.8,3089.34C16260.8,2778.8 16134.8,2497.46 15931.1,2293.77C15727.4,2090.07 15446.1,1964.02 15135.5,1964.02ZM15135.5,2019.38C15430.8,2019.38 15698.3,2139.24 15891.9,2332.92C16085.6,2526.59 16205.5,2794.08 16205.5,3089.34C16205.5,3384.6 16085.6,3652.09 15891.9,3845.76C15698.3,4039.43 15430.8,4159.29 15135.5,4159.29C14840.3,4159.29 14572.8,4039.43 14379.1,3845.76C14185.4,3652.09 14065.6,3384.6 14065.6,3089.34C14065.6,2794.08 14185.4,2526.59 14379.1,2332.92C14572.8,2139.24 14840.3,2019.38 15135.5,2019.38Z"/>
        </g>
        <g transform="matrix(0.0764594,0,0,0.0764595,-130.969,-149.788)">
            <path d="M15135.5,1977.86C14828.8,1977.86 14550.9,2102.37 14349.7,2303.56C14148.6,2504.75 14024.1,2782.62 14024.1,3089.34C14024.1,3396.06 14148.6,3673.93 14349.7,3875.12C14550.9,4076.31 14828.8,4200.81 15135.5,4200.81C15442.2,4200.81 15720.1,4076.31 15921.3,3875.12C16122.5,3673.93 16247,3396.06 16247,3089.34C16247,2782.62 16122.5,2504.75 15921.3,2303.56C15720.1,2102.37 15442.2,1977.86 15135.5,1977.86ZM15135.5,2005.54C15434.6,2005.54 15705.6,2126.95 15901.7,2323.13C16097.9,2519.3 16219.3,2790.25 16219.3,3089.34C16219.3,3388.42 16097.9,3659.37 15901.7,3855.55C15705.6,4051.73 15434.6,4173.14 15135.5,4173.14C14836.4,4173.14 14565.5,4051.73 14369.3,3855.55C14173.1,3659.37 14051.7,3388.42 14051.7,3089.34C14051.7,2790.25 14173.1,2519.3 14369.3,2323.13C14565.5,2126.95 14836.4,2005.54 15135.5,2005.54Z"/>
        </g>
    </g>
</svg>
