<?xml version="1.0" encoding="UTF-8" standalone="no"?>
<!DOCTYPE svg PUBLIC "-//W3C//DTD SVG 1.1//EN" "http://www.w3.org/Graphics/SVG/1.1/DTD/svg11.dtd">
<svg width="100%" height="100%" viewBox="0 0 252 169" version="1.1" xmlns="http://www.w3.org/2000/svg" xmlns:xlink="http://www.w3.org/1999/xlink" xml:space="preserve" xmlns:serif="http://www.serif.com/" style="fill-rule:evenodd;clip-rule:evenodd;stroke-linejoin:round;stroke-miterlimit:2;">
    <g transform="matrix(1,0,0,1,0.276939,0.273957)">
        <g transform="matrix(1,0,0,1,35.1273,56.2201)">
            <g transform="matrix(0.0243818,0,0,0.0243817,-1612.38,-304.473)">
                <path d="M69823.8,10668.7C70324.9,10376.7 70907,10208.8 71528.2,10207.1C73411,10201.9 74943.7,11726.3 74948.8,13609.1C74953.9,15491.8 73429.5,17024.6 71546.8,17029.7C70925.6,17031.4 70342.5,16866.6 69839.9,16577.4C69338.8,16869.3 68756.6,17037.3 68135.5,17039C66252.7,17044.1 64720,15519.7 64714.9,13636.9C64709.7,11754.2 66234.1,10221.5 68116.9,10216.4C68738.1,10214.7 69321.1,10379.5 69823.8,10668.7Z" style="fill:none;stroke:rgb(34,34,34);stroke-width:41.01px;"/>
                <path d="M69823.7,10650.4C70077.5,10503.5 70351.8,10388.1 70641.3,10309.8C70924.1,10233.3 71221.4,10192.1 71528.2,10191.2C72473.9,10188.7 73331.7,10570.3 73953.8,11188.9C74575.8,11807.6 74962,12663.3 74964.6,13609.1C74967.2,14554.8 74585.6,15412.6 73966.9,16034.7C73348.3,16656.7 72492.6,17042.9 71546.8,17045.5C71240,17046.3 70942.5,17006.8 70659.3,16931.8C70369.4,16855 70094.5,16741.2 69839.9,16595.6C69586.2,16742.6 69311.9,16857.9 69022.4,16936.2C68739.6,17012.8 68442.3,17054 68135.5,17054.8C67189.8,17057.4 66331.9,16675.8 65709.9,16057.1C65087.9,15438.5 64701.6,14582.7 64699,13637C64696.5,12691.2 65078.1,11833.4 65696.7,11211.4C66315.4,10589.3 67171.1,10203.1 68116.9,10200.5C68423.6,10199.7 68721.1,10239.3 69004.3,10314.3C69294.3,10391 69569.2,10504.9 69823.7,10650.4ZM69831.8,10682.4C70085.3,10534.6 70359.8,10418.8 70649.6,10340.4C70929.8,10264.5 71224.3,10223.7 71528.2,10222.9C72465.3,10220.3 73315.2,10598.4 73931.5,11211.3C74547.7,11824.3 74930.4,12672.1 74933,13609.1C74935.5,14546.1 74557.5,15396.1 73944.5,16012.3C73331.6,16628.6 72483.7,17011.3 71546.7,17013.9C71242.8,17014.7 70948,16975.5 70667.4,16901.2C70377.2,16824.4 70102.1,16710 69847.8,16563.6L69831.9,16563.7C69578.3,16711.4 69303.9,16827.3 69014.1,16905.7C68733.9,16981.5 68439.4,17022.3 68135.4,17023.1C67198.4,17025.7 66348.5,16647.6 65732.2,16034.7C65115.9,15421.7 64733.2,14573.9 64730.7,13636.9C64728.1,12699.9 65106.2,11850 65719.1,11233.7C66332.1,10617.4 67179.9,10234.7 68116.9,10232.2C68420.9,10231.3 68715.6,10270.6 68996.2,10344.8C69286.5,10421.7 69561.5,10536 69815.9,10682.4L69831.8,10682.4Z" style="fill:none;stroke:rgb(34,34,34);stroke-width:41.01px;"/>
            </g>
            <g transform="matrix(0.0757751,-0.000206197,0.000206196,0.0757751,-1098.87,-203.181)">
                <path d="M15135.5,1986.61C14831.2,1986.61 14555.5,2110.14 14355.9,2309.74C14156.3,2509.35 14032.8,2785.03 14032.8,3089.34C14032.8,3393.64 14156.3,3669.33 14355.9,3868.93C14555.5,4068.54 14831.2,4192.07 15135.5,4192.07C15439.8,4192.07 15715.5,4068.54 15915.1,3868.93C16114.7,3669.33 16238.3,3393.64 16238.3,3089.34C16238.3,2785.03 16114.7,2509.35 15915.1,2309.74C15715.5,2110.14 15439.8,1986.61 15135.5,1986.61ZM15135.5,1996.79C15437,1996.79 15710.2,2119.18 15907.9,2316.94C16105.7,2514.7 16228.1,2787.84 16228.1,3089.34C16228.1,3390.83 16105.7,3663.97 15907.9,3861.73C15710.2,4059.5 15437,4181.89 15135.5,4181.89C14834,4181.89 14560.9,4059.5 14363.1,3861.73C14165.4,3663.97 14043,3390.83 14043,3089.34C14043,2787.84 14165.4,2514.7 14363.1,2316.94C14560.9,2119.18 14834,1996.79 15135.5,1996.79Z" style="fill:none;stroke:rgb(34,34,34);stroke-width:3.96px;"/>
            </g>
            <g transform="matrix(0.06995,-0.000190345,0.000190345,0.0699501,-1010.66,-185.425)">
                <path d="M15135.5,1986.18C14831.1,1986.18 14555.3,2109.76 14355.6,2309.44C14156,2509.12 14032.4,2784.91 14032.4,3089.34C14032.4,3393.76 14156,3669.55 14355.6,3869.23C14555.3,4068.91 14831.1,4192.49 15135.5,4192.49C15440,4192.49 15715.7,4068.91 15915.4,3869.23C16115.1,3669.55 16238.7,3393.76 16238.7,3089.34C16238.7,2784.91 16115.1,2509.12 15915.4,2309.44C15715.7,2109.76 15440,1986.18 15135.5,1986.18ZM15135.5,1997.21C15436.9,1997.21 15709.9,2119.55 15907.6,2317.24C16105.3,2514.93 16227.7,2787.96 16227.7,3089.34C16227.7,3390.72 16105.3,3663.75 15907.6,3861.43C15709.9,4059.12 15436.9,4181.46 15135.5,4181.46C14834.1,4181.46 14561.1,4059.12 14363.4,3861.43C14165.7,3663.75 14043.4,3390.72 14043.4,3089.34C14043.4,2787.96 14165.7,2514.93 14363.4,2317.24C14561.1,2119.55 14834.1,1997.21 15135.5,1997.21Z" style="fill:none;stroke:rgb(34,34,34);stroke-width:4.29px;"/>
            </g>
            <g transform="matrix(0.0757751,-0.000206197,0.000206196,0.0757751,-1015.7,-203.407)">
                <path d="M15135.5,1986.61C14831.2,1986.61 14555.5,2110.14 14355.9,2309.74C14156.3,2509.35 14032.8,2785.03 14032.8,3089.34C14032.8,3393.64 14156.3,3669.33 14355.9,3868.93C14555.5,4068.54 14831.2,4192.07 15135.5,4192.07C15439.8,4192.07 15715.5,4068.54 15915.1,3868.93C16114.7,3669.33 16238.3,3393.64 16238.3,3089.34C16238.3,2785.03 16114.7,2509.35 15915.1,2309.74C15715.5,2110.14 15439.8,1986.61 15135.5,1986.61ZM15135.5,1996.79C15437,1996.79 15710.2,2119.18 15907.9,2316.94C16105.7,2514.7 16228.1,2787.84 16228.1,3089.34C16228.1,3390.83 16105.7,3663.97 15907.9,3861.73C15710.2,4059.5 15437,4181.89 15135.5,4181.89C14834,4181.89 14560.9,4059.5 14363.1,3861.73C14165.4,3663.97 14043,3390.83 14043,3089.34C14043,2787.84 14165.4,2514.7 14363.1,2316.94C14560.9,2119.18 14834,1996.79 15135.5,1996.79Z" style="fill:none;stroke:rgb(34,34,34);stroke-width:3.96px;"/>
            </g>
            <g transform="matrix(0.06995,-0.000190345,0.000190345,0.0699501,-927.481,-185.652)">
                <path d="M15135.5,1986.18C14831.1,1986.18 14555.3,2109.76 14355.6,2309.44C14156,2509.12 14032.4,2784.91 14032.4,3089.34C14032.4,3393.76 14156,3669.55 14355.6,3869.23C14555.3,4068.91 14831.1,4192.49 15135.5,4192.49C15440,4192.49 15715.7,4068.91 15915.4,3869.23C16115.1,3669.55 16238.7,3393.76 16238.7,3089.34C16238.7,2784.91 16115.1,2509.12 15915.4,2309.44C15715.7,2109.76 15440,1986.18 15135.5,1986.18ZM15135.5,1997.21C15436.9,1997.21 15709.9,2119.55 15907.6,2317.24C16105.3,2514.93 16227.7,2787.96 16227.7,3089.34C16227.7,3390.72 16105.3,3663.75 15907.6,3861.43C15709.9,4059.12 15436.9,4181.46 15135.5,4181.46C14834.1,4181.46 14561.1,4059.12 14363.4,3861.43C14165.7,3663.75 14043.4,3390.72 14043.4,3089.34C14043.4,2787.96 14165.7,2514.93 14363.4,2317.24C14561.1,2119.55 14834.1,1997.21 15135.5,1997.21Z" style="fill:none;stroke:rgb(34,34,34);stroke-width:4.29px;"/>
            </g>
            <g transform="matrix(0.0641219,-0.000174486,0.000174487,0.0641218,-922.397,-167.66)">
                <path d="M15135.5,1985.68C14831,1985.68 14555.1,2109.32 14355.3,2309.09C14155.5,2508.86 14031.9,2784.78 14031.9,3089.34C14031.9,3393.9 14155.5,3669.81 14355.3,3869.59C14555.1,4069.36 14831,4192.99 15135.5,4192.99C15440.1,4192.99 15716,4069.36 15915.8,3869.59C16115.6,3669.81 16239.2,3393.9 16239.2,3089.34C16239.2,2784.78 16115.6,2508.86 15915.8,2309.09C15716,2109.32 15440.1,1985.68 15135.5,1985.68ZM15135.5,1997.71C15436.8,1997.71 15709.7,2120 15907.3,2317.6C16104.9,2515.19 16227.1,2788.1 16227.1,3089.34C16227.1,3390.58 16104.9,3663.48 15907.3,3861.08C15709.7,4058.67 15436.8,4180.96 15135.5,4180.96C14834.3,4180.96 14561.4,4058.67 14363.8,3861.08C14166.2,3663.48 14043.9,3390.58 14043.9,3089.34C14043.9,2788.1 14166.2,2515.19 14363.8,2317.6C14561.4,2120 14834.3,1997.71 15135.5,1997.71Z" style="fill:none;stroke:rgb(34,34,34);stroke-width:4.68px;"/>
            </g>
            <g transform="matrix(0.0641219,-0.000174486,0.000174487,0.0641218,-839.221,-167.886)">
                <path d="M15135.5,1985.68C14831,1985.68 14555.1,2109.32 14355.3,2309.09C14155.5,2508.86 14031.9,2784.78 14031.9,3089.34C14031.9,3393.9 14155.5,3669.81 14355.3,3869.59C14555.1,4069.36 14831,4192.99 15135.5,4192.99C15440.1,4192.99 15716,4069.36 15915.8,3869.59C16115.6,3669.81 16239.2,3393.9 16239.2,3089.34C16239.2,2784.78 16115.6,2508.86 15915.8,2309.09C15716,2109.32 15440.1,1985.68 15135.5,1985.68ZM15135.5,1997.71C15436.8,1997.71 15709.7,2120 15907.3,2317.6C16104.9,2515.19 16227.1,2788.1 16227.1,3089.34C16227.1,3390.58 16104.9,3663.48 15907.3,3861.08C15709.7,4058.67 15436.8,4180.96 15135.5,4180.96C14834.3,4180.96 14561.4,4058.67 14363.8,3861.08C14166.2,3663.48 14043.9,3390.58 14043.9,3089.34C14043.9,2788.1 14166.2,2515.19 14363.8,2317.6C14561.4,2120 14834.3,1997.71 15135.5,1997.71Z" style="fill:none;stroke:rgb(34,34,34);stroke-width:4.68px;"/>
            </g>
            <g transform="matrix(0.0582925,-0.000158624,0.000158624,0.0582926,-833.91,-149.685)">
                <path d="M15135.5,1985.08C14830.8,1985.08 14554.7,2108.78 14354.9,2308.66C14155,2508.55 14031.3,2784.61 14031.3,3089.34C14031.3,3394.07 14155,3670.13 14354.9,3870.01C14554.7,4069.89 14830.8,4193.59 15135.5,4193.59C15440.3,4193.59 15716.3,4069.89 15916.2,3870.01C16116.1,3670.13 16239.8,3394.07 16239.8,3089.34C16239.8,2784.61 16116.1,2508.55 15916.2,2308.66C15716.3,2108.78 15440.3,1985.08 15135.5,1985.08ZM15135.5,1998.32C15436.6,1998.32 15709.4,2120.53 15906.8,2318.02C16104.3,2515.51 16226.5,2788.26 16226.5,3089.34C16226.5,3390.41 16104.3,3663.17 15906.8,3860.65C15709.4,4058.14 15436.6,4180.36 15135.5,4180.36C14834.5,4180.36 14561.7,4058.14 14364.2,3860.65C14166.7,3663.17 14044.5,3390.41 14044.5,3089.34C14044.5,2788.26 14166.7,2515.51 14364.2,2318.02C14561.7,2120.53 14834.5,1998.32 15135.5,1998.32Z" style="fill:none;stroke:rgb(34,34,34);stroke-width:5.15px;"/>
            </g>
            <g transform="matrix(0.0582925,-0.000158624,0.000158624,0.0582926,-750.734,-149.912)">
                <path d="M15135.5,1985.08C14830.8,1985.08 14554.7,2108.78 14354.9,2308.66C14155,2508.55 14031.3,2784.61 14031.3,3089.34C14031.3,3394.07 14155,3670.13 14354.9,3870.01C14554.7,4069.89 14830.8,4193.59 15135.5,4193.59C15440.3,4193.59 15716.3,4069.89 15916.2,3870.01C16116.1,3670.13 16239.8,3394.07 16239.8,3089.34C16239.8,2784.61 16116.1,2508.55 15916.2,2308.66C15716.3,2108.78 15440.3,1985.08 15135.5,1985.08ZM15135.5,1998.32C15436.6,1998.32 15709.4,2120.53 15906.8,2318.02C16104.3,2515.51 16226.5,2788.26 16226.5,3089.34C16226.5,3390.41 16104.3,3663.17 15906.8,3860.65C15709.4,4058.14 15436.6,4180.36 15135.5,4180.36C14834.5,4180.36 14561.7,4058.14 14364.2,3860.65C14166.7,3663.17 14044.5,3390.41 14044.5,3089.34C14044.5,2788.26 14166.7,2515.51 14364.2,2318.02C14561.7,2120.53 14834.5,1998.32 15135.5,1998.32Z" style="fill:none;stroke:rgb(34,34,34);stroke-width:5.15px;"/>
            </g>
            <g transform="matrix(0.0524345,-0.000142683,0.000142683,0.0524345,-745.193,-131.829)">
                <path d="M15135.5,1984.34C14830.6,1984.34 14554.3,2108.12 14354.3,2308.14C14154.3,2508.16 14030.5,2784.41 14030.5,3089.34C14030.5,3394.27 14154.3,3670.52 14354.3,3870.53C14554.3,4070.55 14830.6,4194.33 15135.5,4194.33C15440.5,4194.33 15716.7,4070.55 15916.7,3870.53C16116.7,3670.52 16240.5,3394.27 16240.5,3089.34C16240.5,2784.41 16116.7,2508.16 15916.7,2308.14C15716.7,2108.12 15440.5,1984.34 15135.5,1984.34ZM15135.5,1999.06C15436.4,1999.06 15709,2121.19 15906.3,2318.54C16103.7,2515.9 16225.8,2788.47 16225.8,3089.34C16225.8,3390.21 16103.7,3662.78 15906.3,3860.13C15709,4057.48 15436.4,4179.62 15135.5,4179.62C14834.7,4179.62 14562.1,4057.48 14364.7,3860.13C14167.4,3662.78 14045.2,3390.21 14045.2,3089.34C14045.2,2788.47 14167.4,2515.9 14364.7,2318.54C14562.1,2121.19 14834.7,1999.06 15135.5,1999.06Z" style="fill:none;stroke:rgb(34,34,34);stroke-width:5.72px;"/>
            </g>
            <g transform="matrix(0.0524345,-0.000142683,0.000142683,0.0524345,-662.017,-132.056)">
                <path d="M15135.5,1984.34C14830.6,1984.34 14554.3,2108.12 14354.3,2308.14C14154.3,2508.16 14030.5,2784.41 14030.5,3089.34C14030.5,3394.27 14154.3,3670.52 14354.3,3870.53C14554.3,4070.55 14830.6,4194.33 15135.5,4194.33C15440.5,4194.33 15716.7,4070.55 15916.7,3870.53C16116.7,3670.52 16240.5,3394.27 16240.5,3089.34C16240.5,2784.41 16116.7,2508.16 15916.7,2308.14C15716.7,2108.12 15440.5,1984.34 15135.5,1984.34ZM15135.5,1999.06C15436.4,1999.06 15709,2121.19 15906.3,2318.54C16103.7,2515.9 16225.8,2788.47 16225.8,3089.34C16225.8,3390.21 16103.7,3662.78 15906.3,3860.13C15709,4057.48 15436.4,4179.62 15135.5,4179.62C14834.7,4179.62 14562.1,4057.48 14364.7,3860.13C14167.4,3662.78 14045.2,3390.21 14045.2,3089.34C14045.2,2788.47 14167.4,2515.9 14364.7,2318.54C14562.1,2121.19 14834.7,1999.06 15135.5,1999.06Z" style="fill:none;stroke:rgb(34,34,34);stroke-width:5.72px;"/>
            </g>
            <g transform="matrix(0.0466576,-0.000126963,0.000126963,0.0466576,-657.705,-114.22)">
                <path d="M15135.5,1983.43C14830.3,1983.43 14553.9,2107.32 14353.7,2307.5C14153.5,2507.68 14029.6,2784.15 14029.6,3089.34C14029.6,3394.52 14153.5,3671 14353.7,3871.18C14553.9,4071.36 14830.3,4195.24 15135.5,4195.24C15440.7,4195.24 15717.2,4071.36 15917.4,3871.18C16117.5,3671 16241.4,3394.52 16241.4,3089.34C16241.4,2784.15 16117.5,2507.68 15917.4,2307.5C15717.2,2107.32 15440.7,1983.43 15135.5,1983.43ZM15135.5,1999.97C15436.1,1999.97 15708.5,2122 15905.7,2319.19C16102.9,2516.38 16224.9,2788.72 16224.9,3089.34C16224.9,3389.96 16102.9,3662.3 15905.7,3859.49C15708.5,4056.67 15436.1,4178.71 15135.5,4178.71C14834.9,4178.71 14562.6,4056.67 14365.4,3859.49C14168.2,3662.3 14046.2,3389.96 14046.2,3089.34C14046.2,2788.72 14168.2,2516.38 14365.4,2319.19C14562.6,2122 14834.9,1999.97 15135.5,1999.97Z" style="fill:none;stroke:rgb(34,34,34);stroke-width:6.43px;"/>
            </g>
            <g transform="matrix(0.0466576,-0.000126963,0.000126963,0.0466576,-574.543,-114.447)">
                <path d="M15135.5,1983.43C14830.3,1983.43 14553.9,2107.32 14353.7,2307.5C14153.5,2507.68 14029.6,2784.15 14029.6,3089.34C14029.6,3394.52 14153.5,3671 14353.7,3871.18C14553.9,4071.36 14830.3,4195.24 15135.5,4195.24C15440.7,4195.24 15717.2,4071.36 15917.4,3871.18C16117.5,3671 16241.4,3394.52 16241.4,3089.34C16241.4,2784.15 16117.5,2507.68 15917.4,2307.5C15717.2,2107.32 15440.7,1983.43 15135.5,1983.43ZM15135.5,1999.97C15436.1,1999.97 15708.5,2122 15905.7,2319.19C16102.9,2516.38 16224.9,2788.72 16224.9,3089.34C16224.9,3389.96 16102.9,3662.3 15905.7,3859.49C15708.5,4056.67 15436.1,4178.71 15135.5,4178.71C14834.9,4178.71 14562.6,4056.67 14365.4,3859.49C14168.2,3662.3 14046.2,3389.96 14046.2,3089.34C14046.2,2788.72 14168.2,2516.38 14365.4,2319.19C14562.6,2122 14834.9,1999.97 15135.5,1999.97Z" style="fill:none;stroke:rgb(34,34,34);stroke-width:6.43px;"/>
            </g>
            <g transform="matrix(0.0407875,-0.00011099,0.00011099,0.0407875,-568.818,-96.3273)">
                <path d="M15135.5,1982.24C14830,1982.24 14553.2,2106.26 14352.8,2306.65C14152.4,2507.05 14028.4,2783.83 14028.4,3089.34C14028.4,3394.85 14152.4,3671.62 14352.8,3872.02C14553.2,4072.42 14830,4196.43 15135.5,4196.43C15441,4196.43 15717.8,4072.42 15918.2,3872.02C16118.6,3671.62 16242.6,3394.85 16242.6,3089.34C16242.6,2783.83 16118.6,2507.05 15918.2,2306.65C15717.8,2106.26 15441,1982.24 15135.5,1982.24ZM15135.5,2001.15C15435.8,2001.15 15707.9,2123.06 15904.8,2320.03C16101.8,2517 16223.7,2789.05 16223.7,3089.34C16223.7,3389.63 16101.8,3661.67 15904.8,3858.64C15707.9,4055.62 15435.8,4177.52 15135.5,4177.52C14835.2,4177.52 14563.2,4055.62 14366.2,3858.64C14169.2,3661.67 14047.3,3389.63 14047.3,3089.34C14047.3,2789.05 14169.2,2517 14366.2,2320.03C14563.2,2123.06 14835.2,2001.15 15135.5,2001.15Z" style="fill:none;stroke:rgb(34,34,34);stroke-width:7.36px;"/>
            </g>
            <g transform="matrix(0.0349719,-9.51644e-05,9.51643e-05,0.0349719,-480.744,-78.6003)">
                <path d="M15135.5,1980.67C14829.6,1980.67 14552.4,2104.86 14351.7,2305.54C14151.1,2506.22 14026.9,2783.39 14026.9,3089.34C14026.9,3395.28 14151.1,3672.45 14351.7,3873.13C14552.4,4073.81 14829.6,4198.01 15135.5,4198.01C15441.5,4198.01 15718.6,4073.81 15919.3,3873.13C16120,3672.45 16244.2,3395.28 16244.2,3089.34C16244.2,2783.39 16120,2506.22 15919.3,2305.54C15718.6,2104.86 15441.5,1980.67 15135.5,1980.67ZM15135.5,2002.73C15435.4,2002.73 15707,2124.45 15903.7,2321.14C16100.4,2517.83 16222.1,2789.48 16222.1,3089.34C16222.1,3389.2 16100.4,3660.85 15903.7,3857.53C15707,4054.22 15435.4,4175.95 15135.5,4175.95C14835.7,4175.95 14564,4054.22 14367.3,3857.53C14170.6,3660.85 14048.9,3389.2 14048.9,3089.34C14048.9,2789.48 14170.6,2517.83 14367.3,2321.14C14564,2124.45 14835.7,2002.73 15135.5,2002.73Z" style="fill:none;stroke:rgb(34,34,34);stroke-width:8.58px;"/>
            </g>
            <g transform="matrix(0.0407875,-0.00011099,0.00011099,0.0407875,-485.642,-96.5537)">
                <path d="M15135.5,1982.24C14830,1982.24 14553.2,2106.26 14352.8,2306.65C14152.4,2507.05 14028.4,2783.83 14028.4,3089.34C14028.4,3394.85 14152.4,3671.62 14352.8,3872.02C14553.2,4072.42 14830,4196.43 15135.5,4196.43C15441,4196.43 15717.8,4072.42 15918.2,3872.02C16118.6,3671.62 16242.6,3394.85 16242.6,3089.34C16242.6,2783.83 16118.6,2507.05 15918.2,2306.65C15717.8,2106.26 15441,1982.24 15135.5,1982.24ZM15135.5,2001.15C15435.8,2001.15 15707.9,2123.06 15904.8,2320.03C16101.8,2517 16223.7,2789.05 16223.7,3089.34C16223.7,3389.63 16101.8,3661.67 15904.8,3858.64C15707.9,4055.62 15435.8,4177.52 15135.5,4177.52C14835.2,4177.52 14563.2,4055.62 14366.2,3858.64C14169.2,3661.67 14047.3,3389.63 14047.3,3089.34C14047.3,2789.05 14169.2,2517 14366.2,2320.03C14563.2,2123.06 14835.2,2001.15 15135.5,2001.15Z" style="fill:none;stroke:rgb(34,34,34);stroke-width:7.36px;"/>
            </g>
            <g transform="matrix(0.0291463,-7.9312e-05,7.93119e-05,0.0291464,-392.527,-60.8431)">
                <path d="M15135.5,1978.46C14829,1978.46 14551.3,2102.9 14350.2,2303.98C14149.1,2505.06 14024.7,2782.78 14024.7,3089.34C14024.7,3395.89 14149.1,3673.61 14350.2,3874.69C14551.3,4075.77 14829,4200.21 15135.5,4200.21C15442.1,4200.21 15719.8,4075.77 15920.9,3874.69C16122,3673.61 16246.4,3395.89 16246.4,3089.34C16246.4,2782.78 16122,2505.06 15920.9,2303.98C15719.8,2102.9 15442.1,1978.46 15135.5,1978.46ZM15135.5,2004.93C15434.8,2004.93 15705.9,2126.41 15902.2,2322.7C16098.5,2518.99 16219.9,2790.09 16219.9,3089.34C16219.9,3388.59 16098.5,3659.69 15902.2,3855.97C15705.9,4052.26 15434.8,4173.74 15135.5,4173.74C14836.3,4173.74 14565.2,4052.26 14368.9,3855.97C14172.6,3659.69 14051.1,3388.59 14051.1,3089.34C14051.1,2790.09 14172.6,2518.99 14368.9,2322.7C14565.2,2126.41 14836.3,2004.93 15135.5,2004.93Z" style="fill:none;stroke:rgb(34,34,34);stroke-width:10.29px;"/>
            </g>
            <g transform="matrix(0.0349719,-9.51644e-05,9.51643e-05,0.0349719,-397.568,-78.8267)">
                <path d="M15135.5,1980.67C14829.6,1980.67 14552.4,2104.86 14351.7,2305.54C14151.1,2506.22 14026.9,2783.39 14026.9,3089.34C14026.9,3395.28 14151.1,3672.45 14351.7,3873.13C14552.4,4073.81 14829.6,4198.01 15135.5,4198.01C15441.5,4198.01 15718.6,4073.81 15919.3,3873.13C16120,3672.45 16244.2,3395.28 16244.2,3089.34C16244.2,2783.39 16120,2506.22 15919.3,2305.54C15718.6,2104.86 15441.5,1980.67 15135.5,1980.67ZM15135.5,2002.73C15435.4,2002.73 15707,2124.45 15903.7,2321.14C16100.4,2517.83 16222.1,2789.48 16222.1,3089.34C16222.1,3389.2 16100.4,3660.85 15903.7,3857.53C15707,4054.22 15435.4,4175.95 15135.5,4175.95C14835.7,4175.95 14564,4054.22 14367.3,3857.53C14170.6,3660.85 14048.9,3389.2 14048.9,3089.34C14048.9,2789.48 14170.6,2517.83 14367.3,2321.14C14564,2124.45 14835.7,2002.73 15135.5,2002.73Z" style="fill:none;stroke:rgb(34,34,34);stroke-width:8.58px;"/>
            </g>
            <g transform="matrix(0.023317,-6.34496e-05,6.34495e-05,0.023317,-304.24,-43.0746)">
                <path d="M15135.5,1975.16C14828.1,1975.16 14549.5,2099.97 14347.8,2301.64C14146.2,2503.32 14021.3,2781.87 14021.3,3089.34C14021.3,3396.8 14146.2,3675.35 14347.8,3877.03C14549.5,4078.71 14828.1,4203.52 15135.5,4203.52C15443,4203.52 15721.5,4078.71 15923.2,3877.03C16124.9,3675.35 16249.7,3396.8 16249.7,3089.34C16249.7,2781.87 16124.9,2503.32 15923.2,2301.64C15721.5,2099.97 15443,1975.16 15135.5,1975.16ZM15135.5,2008.24C15433.9,2008.24 15704.1,2129.35 15899.8,2325.04C16095.5,2520.73 16216.6,2791 16216.6,3089.34C16216.6,3387.67 16095.5,3657.95 15899.8,3853.64C15704.1,4049.32 15433.9,4170.43 15135.5,4170.43C14837.2,4170.43 14566.9,4049.32 14371.2,3853.64C14175.5,3657.95 14054.4,3387.67 14054.4,3089.34C14054.4,2791 14175.5,2520.73 14371.2,2325.04C14566.9,2129.35 14837.2,2008.24 15135.5,2008.24Z" style="fill:none;stroke:rgb(34,34,34);stroke-width:12.87px;"/>
            </g>
            <g transform="matrix(0.0174878,-4.75872e-05,4.75872e-05,0.0174877,-215.966,-25.3066)">
                <path d="M15135.5,1969.64C14826.5,1969.64 14546.6,2095.07 14343.9,2297.74C14141.3,2500.42 14015.8,2780.35 14015.8,3089.34C14015.8,3398.33 14141.3,3678.25 14343.9,3880.93C14546.6,4083.61 14826.5,4209.03 15135.5,4209.03C15444.5,4209.03 15724.4,4083.61 15927.1,3880.93C16129.8,3678.25 16255.2,3398.33 16255.2,3089.34C16255.2,2780.35 16129.8,2500.42 15927.1,2297.74C15724.4,2095.07 15444.5,1969.64 15135.5,1969.64ZM15135.5,2013.76C15432.3,2013.76 15701.2,2134.25 15895.9,2328.94C16090.6,2523.63 16211.1,2792.52 16211.1,3089.34C16211.1,3386.15 16090.6,3655.05 15895.9,3849.74C15701.2,4044.43 15432.3,4164.92 15135.5,4164.92C14838.7,4164.92 14569.8,4044.43 14375.1,3849.74C14180.4,3655.05 14059.9,3386.15 14059.9,3089.34C14059.9,2792.52 14180.4,2523.63 14375.1,2328.94C14569.8,2134.25 14838.7,2013.76 15135.5,2013.76Z" style="fill:none;stroke:rgb(34,34,34);stroke-width:17.15px;"/>
            </g>
            <g transform="matrix(0.0291463,-7.9312e-05,7.93119e-05,0.0291464,-309.351,-61.0695)">
                <path d="M15135.5,1978.46C14829,1978.46 14551.3,2102.9 14350.2,2303.98C14149.1,2505.06 14024.7,2782.78 14024.7,3089.34C14024.7,3395.89 14149.1,3673.61 14350.2,3874.69C14551.3,4075.77 14829,4200.21 15135.5,4200.21C15442.1,4200.21 15719.8,4075.77 15920.9,3874.69C16122,3673.61 16246.4,3395.89 16246.4,3089.34C16246.4,2782.78 16122,2505.06 15920.9,2303.98C15719.8,2102.9 15442.1,1978.46 15135.5,1978.46ZM15135.5,2004.93C15434.8,2004.93 15705.9,2126.41 15902.2,2322.7C16098.5,2518.99 16219.9,2790.09 16219.9,3089.34C16219.9,3388.59 16098.5,3659.69 15902.2,3855.97C15705.9,4052.26 15434.8,4173.74 15135.5,4173.74C14836.3,4173.74 14565.2,4052.26 14368.9,3855.97C14172.6,3659.69 14051.1,3388.59 14051.1,3089.34C14051.1,2790.09 14172.6,2518.99 14368.9,2322.7C14565.2,2126.41 14836.3,2004.93 15135.5,2004.93Z" style="fill:none;stroke:rgb(34,34,34);stroke-width:10.29px;"/>
            </g>
            <g transform="matrix(0.0116664,-3.17463e-05,3.17204e-05,0.0116569,-127.807,-7.53201)">
                <path d="M15135.5,1958.61C14823.6,1958.61 14541,2085.2 14336.3,2289.77C14131.6,2494.46 14004.8,2777.22 14004.8,3089.34C14004.8,3401.46 14131.6,3684.21 14336.3,3888.9C14541,4093.47 14823.6,4220.07 15135.5,4220.07C15447.5,4220.07 15730.1,4093.47 15934.7,3888.9C16139.5,3684.21 16266.2,3401.46 16266.2,3089.34C16266.2,2777.22 16139.5,2494.46 15934.7,2289.77C15730.1,2085.2 15447.5,1958.61 15135.5,1958.61ZM15135.5,2024.79C15429.2,2024.79 15695.3,2143.99 15888,2336.6C16080.8,2529.3 16200.1,2795.49 16200.1,3089.34C16200.1,3383.18 16080.8,3649.37 15888,3842.08C15695.3,4034.69 15429.2,4153.89 15135.5,4153.89C14841.8,4153.89 14575.7,4034.69 14383.1,3842.08C14190.3,3649.37 14071,3383.18 14071,3089.34C14071,2795.49 14190.3,2529.3 14383.1,2336.6C14575.7,2143.99 14841.8,2024.79 15135.5,2024.79Z" style="fill:none;stroke:rgb(34,34,34);stroke-width:25.73px;"/>
            </g>
            <g transform="matrix(0.00583402,-1.58754e-05,1.58624e-05,0.00582926,-39.4759,10.2306)">
                <circle cx="15135.5" cy="3089.34" r="1097.64" style="fill:rgb(34,34,34);"/>
            </g>
            <g transform="matrix(0.023317,-6.34496e-05,6.34495e-05,0.023317,-221.064,-43.301)">
                <path d="M15135.5,1975.16C14828.1,1975.16 14549.5,2099.97 14347.8,2301.64C14146.2,2503.32 14021.3,2781.87 14021.3,3089.34C14021.3,3396.8 14146.2,3675.35 14347.8,3877.03C14549.5,4078.71 14828.1,4203.52 15135.5,4203.52C15443,4203.52 15721.5,4078.71 15923.2,3877.03C16124.9,3675.35 16249.7,3396.8 16249.7,3089.34C16249.7,2781.87 16124.9,2503.32 15923.2,2301.64C15721.5,2099.97 15443,1975.16 15135.5,1975.16ZM15135.5,2008.24C15433.9,2008.24 15704.1,2129.35 15899.8,2325.04C16095.5,2520.73 16216.6,2791 16216.6,3089.34C16216.6,3387.67 16095.5,3657.95 15899.8,3853.64C15704.1,4049.32 15433.9,4170.43 15135.5,4170.43C14837.2,4170.43 14566.9,4049.32 14371.2,3853.64C14175.5,3657.95 14054.4,3387.67 14054.4,3089.34C14054.4,2791 14175.5,2520.73 14371.2,2325.04C14566.9,2129.35 14837.2,2008.24 15135.5,2008.24Z" style="fill:none;stroke:rgb(34,34,34);stroke-width:12.87px;"/>
            </g>
            <g transform="matrix(0.0174878,-4.75872e-05,4.75872e-05,0.0174877,-132.79,-25.5324)">
                <path d="M15135.5,1969.64C14826.5,1969.64 14546.6,2095.07 14343.9,2297.74C14141.3,2500.42 14015.8,2780.35 14015.8,3089.34C14015.8,3398.33 14141.3,3678.25 14343.9,3880.93C14546.6,4083.61 14826.5,4209.03 15135.5,4209.03C15444.5,4209.03 15724.4,4083.61 15927.1,3880.93C16129.8,3678.25 16255.2,3398.33 16255.2,3089.34C16255.2,2780.35 16129.8,2500.42 15927.1,2297.74C15724.4,2095.07 15444.5,1969.64 15135.5,1969.64ZM15135.5,2013.76C15432.3,2013.76 15701.2,2134.25 15895.9,2328.94C16090.6,2523.63 16211.1,2792.52 16211.1,3089.34C16211.1,3386.15 16090.6,3655.05 15895.9,3849.74C15701.2,4044.43 15432.3,4164.92 15135.5,4164.92C14838.7,4164.92 14569.8,4044.43 14375.1,3849.74C14180.4,3655.05 14059.9,3386.15 14059.9,3089.34C14059.9,2792.52 14180.4,2523.63 14375.1,2328.94C14569.8,2134.25 14838.7,2013.76 15135.5,2013.76Z" style="fill:none;stroke:rgb(34,34,34);stroke-width:17.15px;"/>
            </g>
            <g transform="matrix(0.0116664,-3.17463e-05,3.17204e-05,0.0116569,-44.6307,-7.75906)">
                <path d="M15135.5,1958.61C14823.6,1958.61 14541,2085.2 14336.3,2289.77C14131.6,2494.46 14004.8,2777.22 14004.8,3089.34C14004.8,3401.46 14131.6,3684.21 14336.3,3888.9C14541,4093.47 14823.6,4220.07 15135.5,4220.07C15447.5,4220.07 15730.1,4093.47 15934.7,3888.9C16139.5,3684.21 16266.2,3401.46 16266.2,3089.34C16266.2,2777.22 16139.5,2494.46 15934.7,2289.77C15730.1,2085.2 15447.5,1958.61 15135.5,1958.61ZM15135.5,2024.79C15429.2,2024.79 15695.3,2143.99 15888,2336.6C16080.8,2529.3 16200.1,2795.49 16200.1,3089.34C16200.1,3383.18 16080.8,3649.37 15888,3842.08C15695.3,4034.69 15429.2,4153.89 15135.5,4153.89C14841.8,4153.89 14575.7,4034.69 14383.1,3842.08C14190.3,3649.37 14071,3383.18 14071,3089.34C14071,2795.49 14190.3,2529.3 14383.1,2336.6C14575.7,2143.99 14841.8,2024.79 15135.5,2024.79Z" style="fill:none;stroke:rgb(34,34,34);stroke-width:25.73px;"/>
            </g>
            <g transform="matrix(0.00583402,-1.58754e-05,1.58624e-05,0.00582926,43.6857,10.0049)">
                <circle cx="15135.5" cy="3089.34" r="1097.64" style="fill:none;stroke:rgb(34,34,34);stroke-width:171.48px;"/>
                <path d="M15135.5,1925.53C14814.5,1925.53 14523.6,2055.81 14313,2266.37C14102.2,2477.05 13971.8,2768.08 13971.8,3089.34C13971.8,3410.59 14102.2,3701.63 14313,3912.31C14523.6,4122.86 14814.5,4253.15 15135.5,4253.15C15456.6,4253.15 15747.5,4122.86 15958.1,3912.31C16168.9,3701.63 16299.3,3410.59 16299.3,3089.34C16299.3,2768.08 16168.9,2477.05 15958.1,2266.37C15747.5,2055.81 15456.6,1925.53 15135.5,1925.53ZM15135.5,2057.87C15420.1,2057.87 15677.9,2173.37 15864.6,2360C16051.4,2546.72 16167,2804.63 16167,3089.34C16167,3374.05 16051.4,3631.96 15864.6,3818.67C15677.9,4005.3 15420.1,4120.8 15135.5,4120.8C14850.9,4120.8 14593.1,4005.3 14406.4,3818.67C14219.6,3631.96 14104,3374.05 14104,3089.34C14104,2804.63 14219.6,2546.72 14406.4,2360C14593.1,2173.37 14850.9,2057.87 15135.5,2057.87Z" style="fill:none;stroke:rgb(34,34,34);stroke-width:171.48px;"/>
            </g>
        </g>
    </g>
</svg>
